<?xml version="1.0" encoding="UTF-8"?>
<!DOCTYPE svg PUBLIC "-//W3C//DTD SVG 1.1//EN" "http://www.w3.org/Graphics/SVG/1.1/DTD/svg11.dtd">
<!-- Creator: CorelDRAW -->
<svg xmlns="http://www.w3.org/2000/svg" xml:space="preserve" width="100mm" height="297mm" style="shape-rendering:geometricPrecision; text-rendering:geometricPrecision; image-rendering:optimizeQuality; fill-rule:evenodd; clip-rule:evenodd"
viewBox="0 0 100 297"
 xmlns:xlink="http://www.w3.org/1999/xlink">
 <defs>
  <style type="text/css">
   <![CDATA[
    .fil9 {fill:#8D3C0C}
    .fil7 {fill:#A55611}
    .fil8 {fill:#C47C16}
    .fil1 {fill:#E29D1C}
    .fil5 {fill:#E77846}
    .fil0 {fill:#F16413}
    .fil2 {fill:#F5C303}
    .fil3 {fill:#FAD77B}
    .fil4 {fill:#FDEBB6}
    .fil6 {fill:#FEFEFF}
   ]]>
  </style>
 </defs>
 <g id="Layer_x0020_1">
  <metadata id="CorelCorpID_0Corel-Layer"/>
  <g id="_126401776">
   <path id="_60636696" class="fil0" d="M34.0558 29.8515l0 1.5607c0,4.3013 3.0429,10.1705 5.7222,11.9646 -0.2098,-2.522 -1.0403,-3.2608 -1.0403,-6.2424l0 -2.6011c0,-6.87 8.3232,-15.1633 8.3232,-24.4495 0,-2.4765 -0.4157,-4.4051 -1.5606,-5.7224 -0.1685,7.5628 -2.5492,8.2402 -5.8233,12.384 -1.6647,2.1069 -5.6212,9.8754 -5.6212,13.1061z"/>
   <path id="_61647200" class="fil0" d="M53.3033 60.5436l1.0405 0 0.1792 1.2722 1.8907 -1.7639 1.5078 0.4715 0.6026 -1.8353 2.301 0.1819 3.0855 2.1325 0.0415 -0.5525 1.316 -3.5477c-1.7281,-6.4722 -16.1264,-16.6079 -16.1264,-28.6114 0,-2.8871 1.9338,-6.0298 3.1213,-7.8031 -3.684,0.9837 -9.3637,9.081 -9.3637,14.0455l0 1.5608c0,11.5188 6.5164,16.3472 10.404,24.4495z"/>
   <path id="_119781048" class="fil0" d="M78.7934 74.5892l3.1052 -1.1318 0.3902 0.6589 0.6662 -0.5674 -3.2808 -5.9475 -0.9944 2.2763 -0.9267 0.0296 -2.462 -10.8474c-0.2911,0.9825 -0.6593,2.3215 -0.6593,4.0848 0,3.6098 2.5914,9.1847 4.1616,11.4445z"/>
   <path id="_62086776" class="fil0" d="M53.3033 60.5436l0 2.0808 -4.4791 -2.8897 -0.2027 15.895 1.1525 2.2125 1.6709 -1.8327 1.0004 1.586 0.373 0.3953 1.5255 -2.8814 0 2.6011 8.0631 0.2601 1.8208 1.3004 0.0372 -1.6576 1.4498 0.603 0.5939 -1.5464 0.2853 2.656 0.2347 -1.6155 4.1431 -0.0047 0.5388 -2.7565 4.1618 0.1601c-2.2203,-4.6271 -6.7578,-15.7655 -10.4042,-18.2071l-1.316 3.5477 -0.0415 0.5525 -3.0855 -2.1325 -2.301 -0.1819 -0.6026 1.8353 -1.5078 -0.4715 -1.8907 1.7639 -0.1792 -1.2722 -1.0405 0z"/>
   <polygon id="_121692576" class="fil1" points="78.7934,74.5892 79.8339,78.2307 80.5274,78.9242 81.3944,79.7913 82.955,79.7913 83.9955,79.7913 82.955,73.5489 82.2888,74.1163 81.8986,73.4574 "/>
   <path id="_60599336" class="fil0" d="M21.5709 78.7508c2.1079,-0.491 1.5663,-0.1392 2.1083,-1.605l1.0129 0.5647c0.3096,-1.1594 0.1215,-1.5607 1.5606,-1.5607 1.5961,0 2.2492,1.2833 2.601,2.601 2.0665,0.1721 1.2532,0.5202 2.6011,0.5202 1.1915,0 0.6049,-0.1763 2.0808,-0.5202 0,-3.812 -2.2731,-6.7627 -5.7222,-6.7627l-1.0405 0c-2.5032,0 -5.7221,1.4269 -5.7221,3.6416l0 0.5201c0,1.405 0.2483,1.4343 0.5201,2.601z"/>
   <path id="_62005976" class="fil0" d="M21.5709 78.7508c0.9491,0.825 1.8487,1.5607 3.6415,1.5607 0.7017,0 0.7802,-0.5774 1.0403,-1.0405l-1.5715 -0.4917 0.0109 -1.0688 -1.0129 -0.5647c-0.542,1.4658 -0.0004,1.114 -2.1083,1.605z"/>
   <path id="_127621416" class="fil0" d="M29.374 83.4327l1.0405 0.867 1.5605 0.1734 1.5606 -5.7223c-1.4759,0.3439 -0.8893,0.5202 -2.0808,0.5202 -1.3479,0 -0.5346,-0.3481 -2.6011,-0.5202l0.5203 4.6819z"/>
   <polygon id="_127621360" class="fil1" points="83.9955,79.7913 82.955,79.7913 81.3944,79.7913 80.5274,78.9242 79.8339,78.2307 79.8339,84.9934 84.1984,81.5726 "/>
   <path id="_127318296" class="fil0" d="M48.6215 75.6297l-5.202 9.3637 2.6011 1.5605c1.2664,-1.7286 4.4326,-6.993 5.7222,-6.2424 1.8229,2.873 -0.954,9.5448 3.1212,9.8838 0.6383,-2.3902 1.5606,-1.3133 1.5606,-3.1211l0.1125 -1.3807 2.4029 -1.3972 1.6462 4.8587 1.0405 0 0 -1.5606 1.0403 0 0 1.0403 1.9812 -7.3731 1.1401 5.8126 7.803 0.5202 0.5154 0.0643 2.0856 -0.0643 0 6.2424 1.197 -8.8285c0.1563,-3.2953 -1.4804,-7.0542 -1.717,-9.8989l-4.1618 -0.1601 -0.5388 2.7565 -4.1431 0.0047 -0.2347 1.6155 -0.2853 -2.656 -0.5939 1.5464 -1.4498 -0.603 -0.0372 1.6576 -1.8208 -1.3004 -8.0631 -0.2601 0 -2.6011 -1.5255 2.8814 -0.373 -0.3953 -1.0004 -1.586 -1.6709 1.8327 -1.1525 -2.2125z"/>
   <polygon id="_127318464" class="fil1" points="31.975,84.4731 30.4145,84.2997 29.374,83.4327 26.8908,90.7546 "/>
   <path id="_61403792" class="fil1" d="M58.5054 90.7155l0.5477 7.2386 1.0129 0.5646 2.601 -9.884 0 -1.0403 -1.0403 0 0 1.5606 -1.0405 0 -1.6462 -4.8587 -2.4029 1.3972 -0.1125 1.3807c0,1.8078 -0.9223,0.7309 -1.5606,3.1211 -4.0752,-0.339 -1.2983,-7.0108 -3.1212,-9.8838 0,9.313 -1.0393,9.9428 -2.6011,16.6466 4.6289,-1.0785 6.7196,-9.0745 9.3637,-9.3637l0 3.1211z"/>
   <path id="_61612216" class="fil1" d="M22.0911 99.559l2.0351 0.465 4.2862 -3.0486 -0.6257 2.9647 2.6278 -0.3811c4.6607,-0.3878 13.3209,-9.5924 15.6061,-13.0051l-2.6011 -1.5605c-1.1994,1.791 -5.314,6.5554 -7.8031,6.7626 2.1593,-4.4999 1.5607,-3.213 1.5607,-8.8434 -2.7069,3.114 -3.2025,5.8196 -7.1858,8.9405 -3.9882,3.1248 -5.0199,3.4045 -7.9002,7.7059z"/>
   <path id="_62006168" class="fil1" d="M22.0911 99.559c-4.6328,3.1024 -3.2859,3.7188 -5.7222,8.3234l4.1616 -1.0405c1.9099,-2.1971 3.1831,-6.5701 6.2424,-7.2829l0.0475 1.2474 3.5941 -1.2474 -2.6278 0.3811 0.6257 -2.9647 -4.2862 3.0486 -2.0351 -0.465z"/>
   <path id="_61612024" class="fil1" d="M63.7075 105.281l3.1211 -2.0808 0 1.0404 1.5608 0 0.2151 1.8801 1.8657 -1.8801 1.4968 0.0202 0.7717 2.2617 1.148 -0.9894 2.7803 2.3404 0.5658 -3.6329 2.0808 0 0.2224 2.2212 0.807 -1.6725 1.5938 0.4953 -1.0626 6.2389 1.013 -0.5647c0.0988,-3.1587 2.1083,-6.1241 2.1083,-8.2788l0 -12.485c0,-1.0042 -0.1637,-0.9259 -0.5203,-1.5606 -2.3213,1.7008 -2.9117,7.4394 -7.2829,7.8032l0 -2.6011 0 -6.2424 -2.0856 0.0643 -0.5154 -0.0643 -7.803 -0.5202 -2.0808 18.2071z"/>
   <path id="_61612120" class="fil2" d="M46.0206 86.5539c-2.2852,3.4127 -10.9454,12.6173 -15.6061,13.0051l-3.5941 1.2474 -0.0475 -1.2474c-3.0593,0.7128 -4.3325,5.0858 -6.2424,7.2829 -0.2098,2.5222 -1.0405,3.2609 -1.0405,6.2426 0,3.0319 1.3601,6.9772 3.6416,7.803l0 -2.6011c0,-4.6879 2.8409,-7.9544 5.804,-9.8751l-0.6021 6.754 0 1.0403c0,3.3242 0.4588,5.5315 3.1213,6.2426 -0.7097,-3.0464 -0.7137,-8.9989 2.601,-9.884l0 3.1212 0.4331 0.5059 15.1731 -12.4705 0 2.601c0,4.0746 -2.8114,5.1185 -3.1213,8.8435l1.0405 0c0.5394,-2.0201 1.9421,-2.376 3.1016,-3.661 1.5022,-1.6647 1.4692,-3.0772 2.5321,-4.751 1.9579,-3.0837 3.73,-5.8723 3.73,-10.8357l0.986 -0.0019 0.5745 -5.2002 0 -3.1211c-2.6441,0.2892 -4.7348,8.2852 -9.3637,9.3637 1.5618,-6.7038 2.6011,-7.3336 2.6011,-16.6466 -1.2896,-0.7506 -4.4558,4.5138 -5.7222,6.2424z"/>
   <path id="_121692768" class="fil2" d="M20.5305 106.842l-4.1616 1.0405c-2.9334,6.1134 3.6095,14.0118 5.7222,17.1667 2.3775,-0.5035 2.0349,0.5597 2.601,-1.5606l0.4113 -7.85 0.6292 0.0469c0.1071,4.8069 3.1409,8.8474 6.2648,11.0413l2.5787 -0.6371 0 -2.0809 0.5748 0.3481 5.1474 -7.6309 4.2574 -3.6283 -0.6159 5.1888 -0.0276 0.9961 -1.0129 0.5646 0 1.5606 2.0808 0c0.9943,-1.8791 3.0574,-3.0776 4.6533,-4.7105 1.5152,-1.5505 2.7768,-3.6894 4.124,-5.2396 2.0985,-2.4146 5.9857,-9.0581 6.3086,-12.9389l-1.0129 -0.5646 -0.5477 -7.2386 -0.5745 5.2002 -0.986 0.0019c0,4.9634 -1.7721,7.752 -3.73,10.8357 -1.0629,1.6738 -1.0299,3.0863 -2.5321,4.751 -1.1595,1.285 -2.5622,1.6409 -3.1016,3.661l-1.0405 0c0.3099,-3.725 3.1213,-4.7689 3.1213,-8.8435l0 -2.601 -15.1731 12.4705 -0.4331 -0.5059 0 -3.1212c-3.3147,0.8851 -3.3107,6.8376 -2.601,9.884 -2.6625,-0.7111 -3.1213,-2.9184 -3.1213,-6.2426l0 -1.0403 0.6021 -6.754c-2.9631,1.9207 -5.804,5.1872 -5.804,9.8751l0 2.6011c-2.2815,-0.8258 -3.6416,-4.7711 -3.6416,-7.803 0,-2.9817 0.8307,-3.7204 1.0405,-6.2426z"/>
   <path id="_62006264" class="fil3" d="M62.667 88.6347l-2.601 9.884c-0.3229,3.8808 -4.2101,10.5243 -6.3086,12.9389 -1.3472,1.5502 -2.6088,3.6891 -4.124,5.2396 -1.5959,1.6329 -3.659,2.8314 -4.6533,4.7105 -1.1419,0.9926 -1.1617,1.3976 -3.2603,1.5208l1.1795 -3.0814c0.2718,-1.1667 0.5202,-1.196 0.5202,-2.601l-0.1156 -2.7167 -1.9652 2.1965 -1.0404 0 -5.1474 7.6309 -0.5748 -0.3481 0 2.0809 1.0403 1.0404 3.6987 -6.2275 -1.0977 5.1871c1.395,0.3339 0.9807,0.5202 2.0809,0.5202 3.2969,0 11.8313,-4.3148 12.5109,-6.8407l1.0144 0.5981 0.5202 -2.0808 2.6002 0.0056 3.6422 0.5147 -0.312 0.9363 0.5356 -0.38 1.8572 1.5245 6.4504 -5.0625 -6.9705 10.7848 2.0808 1.5606 8.2789 -0.0275 0.5646 -1.0129 -1.0405 0 -0.093 -1.2947 -3.0281 1.2947 -2.081 0 -2.6009 0.5201c1.8709,-5.1684 7.803,-12.2972 7.803,-19.2475 -2.6135,0.6978 -6.5459,8.7112 -12.8325,8.7124l4.5093 -11.8337 2.0808 -18.2071 -1.1401 -5.8126 -1.9812 7.3731z"/>
   <path id="_61978576" class="fil2" d="M82.4349 114.125c-1.0431,1.5576 -3.1655,4.1657 -4.0054,5.8785 -1.7496,3.5669 -4.1469,4.5233 -4.318,6.0863l6.2425 0c5.3867,-3.6072 3.1398,-6.3864 4.6818,-13.0051l-2.6009 1.0403z"/>
   <path id="_125393216" class="fil1" d="M40.2983 116.726l1.0404 0 1.9652 -2.1965 0.1156 2.7167c0,1.405 -0.2484,1.4343 -0.5202,2.601l1.0129 -0.5646 0.0276 -0.9961 0.6159 -5.1888 -4.2574 3.6283z"/>
   <path id="_125393328" class="fil4" d="M53.8236 120.367l-1.5606 1.5607 0 1.5606c0.9262,-0.9765 1.6636,-1.5606 3.6414,-1.5606 1.6972,0 1.7135,0.269 2.601,1.0404l4.1616 -2.0808 -1.8572 -1.5245 -0.5356 0.38 0.312 -0.9363 -3.6422 -0.5147 -2.6002 -0.0056 -0.5202 2.0808z"/>
   <path id="_127520600" class="fil2" d="M63.7075 105.281l-4.5093 11.8337c6.2866,-0.0012 10.219,-8.0146 12.8325,-8.7124 0,6.9503 -5.9321,14.0791 -7.803,19.2475l2.6009 -0.5201c2.2332,-1.941 6.3609,-2.2844 7.2829,-6.2425 3.7356,-0.3109 4.7682,-6.5489 6.7627,-8.8435l0 -0.5202 1.0626 -6.2389 -1.5938 -0.4953 -0.807 1.6725 -0.2224 -2.2212 -2.0808 0 -0.5658 3.6329 -2.7803 -2.3404 -1.148 0.9894 -0.7717 -2.2617 -1.4968 -0.0202 -1.8657 1.8801 -0.2151 -1.8801 -1.5608 0 0 -1.0404 -3.1211 2.0808z"/>
   <path id="_121425576" class="fil1" d="M44.9801 121.408l-2.0808 0 0 -1.5606 -1.1795 3.0814c2.0986,-0.1232 2.1184,-0.5282 3.2603,-1.5208z"/>
   <path id="_121425696" class="fil4" d="M52.263 123.489l-0.5202 2.0808 1.5605 0c1.7962,0 4.1994,-1.7294 5.2021,-2.601 -0.8875,-0.7714 -0.9038,-1.0404 -2.601,-1.0404 -1.9778,0 -2.7152,0.5841 -3.6414,1.5606z"/>
   <path id="_127621192" class="fil3" d="M66.8286 127.13l2.081 0 3.0281 -1.2947 0.093 1.2947 1.0405 0 6.7627 -0.5202 0.5201 -0.5202 -6.2425 0c0.1711,-1.563 2.5684,-2.5194 4.318,-6.0863 0.8399,-1.7128 2.9623,-4.3209 4.0054,-5.8785l-1.5607 0 0 -2.0808c-1.9945,2.2946 -3.0271,8.5326 -6.7627,8.8435 -0.922,3.9581 -5.0497,4.3015 -7.2829,6.2425z"/>
   <path id="_123788856" class="fil2" d="M22.0911 125.049l0.4335 0.6069 0.607 0.4336 2.1462 0.5153 -0.5857 -3.1164c-0.5661,2.1203 -0.2235,1.0571 -2.601,1.5606z"/>
   <path id="_127103440" class="fil3" d="M24.6921 123.489l0.5857 3.1164 -2.1462 -0.5153 1.5605 2.0808 11.4445 0 -0.5202 -1.0404 -1.0403 -1.0404 -2.5787 0.6371c-3.1239,-2.1939 -6.1577,-6.2344 -6.2648,-11.0413l-0.6292 -0.0469 -0.4113 7.85z"/>
   <path id="_123789144" class="fil5" d="M62.667 120.888l-4.1616 2.0808c-1.0027,0.8716 -3.4059,2.601 -5.2021,2.601l-1.5605 0 0.5202 -2.0808 0 -1.5606 1.5606 -1.5607 -1.0144 -0.5981c-0.6796,2.5259 -9.214,6.8407 -12.5109,6.8407 -1.1002,0 -0.6859,-0.1863 -2.0809,-0.5202l1.0977 -5.1871 -3.6987 6.2275 0.5202 1.0404 4.1617 1.0404 10.6371 -4.0517 -1.3705 2.5283 0.6173 1.5234 5.7222 -1.5607 5.6487 -2.5867 0.5938 1.5464 6.9705 -10.7848 -6.4504 5.0625z"/>
   <polygon id="_126508360" class="fil4" points="73.0712,127.13 72.5066,128.143 64.2277,128.17 65.2614,130.703 62.667,131.292 76.1923,131.292 79.8339,126.61 "/>
   <polygon id="_127103160" class="fil4" points="25.2124,131.292 27.2932,131.292 41.8588,131.292 43.4195,131.292 40.2983,130.771 40.2983,129.211 36.1366,128.17 24.6921,128.17 25.739,130.247 "/>
   <polygon id="_127103048" class="fil4" points="40.2983,129.211 40.2983,130.771 43.4195,131.292 62.667,131.292 65.2614,130.703 64.2277,128.17 62.1469,126.61 61.5531,125.063 55.9044,127.65 60.066,128.17 60.066,130.771 46.0206,130.771 46.0225,128.679 50.1822,129.211 49.5649,127.687 50.9354,125.159 "/>
   <polygon id="_61566032" class="fil6" points="50.1822,129.211 46.0225,128.679 46.0206,130.771 60.066,130.771 60.066,128.17 55.9044,127.65 "/>
   <path id="_61211504" class="fil7" d="M16.889 140.655l0.5202 0.5203 2.0808 0c-0.5407,-1.0222 -1.0403,-1.5342 -1.0403,-3.1213l0 -3.6415c0,-1.405 -0.2485,-1.4342 -0.5061,-2.5275l1.5464 -0.5937 -6.2424 0.5203 2.6011 0 0 1.0403 1.1185 0.2342 -1.1185 0.286 0 3.6414c0,1.989 0.1597,0.1894 -0.5203,1.5607l1.9897 -0.0238 -0.4291 2.1046z"/>
   <polygon id="_121463888" class="fil3" points="20.0103,138.575 21.0508,138.575 21.0508,137.534 21.0508,131.292 20.0103,131.292 "/>
   <path id="_121464080" class="fil8" d="M19.49 141.176l1.0405 0 -0.5202 -2.6011 0 -7.2829 -0.5203 0 -1.5464 0.5937c0.2576,1.0933 0.5061,1.1225 0.5061,2.5275l0 3.6415c0,1.5871 0.4996,2.0991 1.0403,3.1213z"/>
   <path id="_61938344" class="fil1" d="M21.0508 137.534l0 1.0404 -1.0405 0 0.5202 2.6011 5.7222 0c0.3566,-0.6347 0.5202,-0.5565 0.5202,-1.5607l0 -7.803 -5.1501 0.0015 -0.572 5.7207z"/>
   <path id="_61211112" class="fil7" d="M16.889 140.655l0.4291 -2.1046 -1.9897 0.0238c0.68,-1.3713 0.5203,0.4283 0.5203,-1.5607l0 -3.6414 1.1185 -0.286 -1.1185 -0.2342 0 -1.0403 -2.6011 0 -0.5606 8.8429 4.202 0.0005z"/>
   <path id="_123286800" class="fil1" d="M21.0508 137.534l0.572 -5.7207 5.1501 -0.0015 0 7.803c0,1.0042 -0.1636,0.926 -0.5202,1.5607l1.5607 0 3.6446 -1.0249 -0.547 -0.1713 1.6325 -5.7017 0.5474 0.0726 -1.1603 -1.5255 0.5647 -1.0129 -5.2021 -0.5203 -2.0808 0 -4.1616 0 0 6.2425z"/>
   <path id="_25826416" class="fil0" d="M27.8134 141.176l5.7222 0c5.3728,-3.7336 1.7515,-6.5629 4.1485,-8.7478l-5.1888 -0.6159 -0.5647 1.0129 1.1603 1.5255 -0.5474 -0.0726 -1.6325 5.7017 0.547 0.1713 -3.6446 1.0249z"/>
   <path id="_123286632" class="fil7" d="M43.4195 141.176l11.0023 -0.2342 -1.1185 -0.2861 0 -1.5607 1.372 -0.1608 -1.3202 -2.7179 -0.939 0.106 1.9277 -3.9899 -4.1616 0 0 -0.5201 10.404 0 0 1.5605 2.0858 0.245 13.5203 -0.245 0 -1.5605 1.0405 0 4.6819 0 1.5605 0 -7.2829 -0.5203 -13.5253 0 -19.2475 0 -1.5607 0 0 0.5203 5.8787 0.7986 -2.8506 1.4487 1.6538 0.8738c-0.2718,1.1667 -0.5201,1.1961 -0.5201,2.6011l0 2.0808 -0.2771 0.471 0.2704 0.5009 -2.5944 0.5888z"/>
   <path id="_25826704" class="fil7" d="M41.8588 141.176l1.5607 0 2.5944 -0.5888 -0.2704 -0.5009 0.2771 -0.471 0 -2.0808c0,-1.405 0.2483,-1.4344 0.5201,-2.6011l-1.6538 -0.8738 2.8506 -1.4487 -5.8787 -0.7986 -1.5605 1.5605 0 3.1213c0,1.9888 0.1597,0.1894 -0.268,1.3583l1.8285 1.7629 0 1.5607z"/>
   <path id="_123286464" class="fil9" d="M43.4195 141.176l-1.5607 0 -8.3232 0 -5.7222 0 -1.5607 0 -5.7222 0 -1.0405 0 -2.0808 0c0,10.6852 7.0153,23.6127 14.0456,25.49 -1.9937,-2.9772 -0.2358,-2.7374 -3.6505,-5.1929 -1.5874,-1.1416 -2.6866,-3.2241 -3.3239,-5.5197 -1.1397,-4.1049 -3.4296,-10.0044 -3.4296,-14.2573l1.5605 0 1.0405 0 16.1262 0 34.8538 0 9.3637 0 2.601 0 0 -1.0404 4.1616 0 0 -8.8434 -7.2829 0 0 9.3637 -6.7626 0c-1.989,0 -0.1894,0.1597 -1.5606,-0.5203l0 -1.0404 1.0403 0 0 -6.2425 -13.5203 0.245 -2.0858 -0.245 0 -1.5605 -10.404 0 0 0.5201 4.1616 0 -1.9277 3.9899 0.939 -0.106 1.3202 2.7179 -1.372 0.1608 0 1.5607 1.1185 0.2861 -11.0023 0.2342z"/>
   <path id="_60598032" class="fil8" d="M32.4953 131.812l5.1888 0.6159c-2.397,2.1849 1.2243,5.0142 -4.1485,8.7478l8.3232 0 0 -1.5607 -1.8285 -1.7629c0.4277,-1.1689 0.268,0.6305 0.268,-1.3583l0 -3.1213 1.5605 -1.5605 0 -0.5203 -14.5656 0 5.2021 0.5203z"/>
   <polygon id="_60278112" class="fil7" points="81.9147,131.812 77.2328,131.812 77.7531,140.655 81.9147,140.655 "/>
   <path id="_60278000" class="fil7" d="M76.1923 133.372l0 6.2425 -1.0403 0 0 1.0404c1.3712,0.68 -0.4284,0.5203 1.5606,0.5203l6.7626 0 0 -9.3637 -1.5605 0 0 8.8434 -4.1616 0 -0.5203 -8.8434 -1.0405 0 0 1.5605z"/>
   <path id="_60231624" class="fil3" d="M31.975 164.585c1.8922,-0.6274 -0.71,-2.6385 -1.9506,-4.2919 -0.6078,-0.8103 -2.6489,-4.2674 -3.0974,-5.2259 -1.7052,-3.6458 -2.29,-9.1425 -3.2752,-13.3713l-1.0405 0c0,11.8342 4.7637,16.0197 9.3637,22.8891z"/>
   <path id="_60277832" class="fil7" d="M83.9955 141.696l-9.3637 0c0,8.5314 -0.3415,14.9816 -4.302,19.6275 -2.1287,2.4969 -3.433,3.9234 -6.0044,5.9603 -2.3803,1.8856 -6.1401,3.0537 -7.9008,4.5841l2.6011 0c1.059,-2.6239 24.9698,-8.557 24.9698,-30.1719z"/>
   <path id="_121340712" class="fil8" d="M40.8185 170.827l1.5606 1.5605 9.8839 1.0405 2.601 0c3.4959,0 6.2759,-1.4803 9.8838,-1.5607 1.111,-3.0691 21.8487,-7.1534 21.8487,-30.1719l-2.601 0c0,21.6149 -23.9108,27.548 -24.9698,30.1719l-2.6011 0c1.7607,-1.5304 5.5205,-2.6985 7.9008,-4.5841 2.5714,-2.0369 3.8757,-3.4634 6.0044,-5.9603 3.9605,-4.6459 4.302,-11.0961 4.302,-19.6275l-34.8538 0c-0.5776,2.4797 -2.6009,4.4727 -2.6009,6.7626l0 5.2021c0,5.4307 2.2271,4.3513 2.6009,8.8435 2.2755,0.1893 3.6271,2.8743 4.8824,4.4814 1.3126,1.6805 4.2495,2.7631 4.443,5.1128l-8.2849 -1.2708z"/>
   <path id="_126402248" class="fil1" d="M31.975 164.585l8.8435 6.2425 8.2849 1.2708c-0.1935,-2.3497 -3.1304,-3.4323 -4.443,-5.1128 -1.2553,-1.6071 -2.6069,-4.2921 -4.8824,-4.4814 -0.3738,-4.4922 -2.6009,-3.4128 -2.6009,-8.8435l0 -5.2021c0,-2.2899 2.0233,-4.2829 2.6009,-6.7626l-16.1262 0c0.9852,4.2288 1.57,9.7255 3.2752,13.3713 0.4485,0.9585 2.4896,4.4156 3.0974,5.2259 1.2406,1.6534 3.8428,3.6645 1.9506,4.2919z"/>
   <polygon id="_127393464" class="fil1" points="48.1014,290.995 50.1822,290.995 47.5812,178.63 43.9398,176.029 "/>
   <path id="_126402112" class="fil7" d="M47.5812 178.63l2.601 112.364 8.3232 -0.5201 4.6819 -113.925c-4.4939,5.1703 -2.5543,46.9275 -3.7925,56.998 -0.8286,6.7385 0.2841,21.0387 -1.097,28.6283 -0.8071,4.4353 -0.0438,10.5682 -0.7223,14.884 -0.6967,4.4331 1.682,13.0925 -2.3537,13.4108l2.7103 -108.72 -0.1587 0.6453 -10.1922 -3.7651z"/>
   <path id="_127393752" class="fil8" d="M31.4548 166.666l7.2621 4.2016 4.7311 118.045 1.9367 2.1976 2.7167 -0.1156 -4.1616 -114.965 -2.5736 -3.0768 1.0129 -0.5647 -1.5606 -1.5605 -8.8435 -6.2425c-4.6,-6.8694 -9.3637,-11.0549 -9.3637,-22.8891l-1.5605 0c0,4.2529 2.2899,10.1524 3.4296,14.2573 0.6373,2.2956 1.7365,4.3781 3.3239,5.5197 3.4147,2.4555 1.6568,2.2157 3.6505,5.1929z"/>
   <path id="_126401944" class="fil9" d="M42.3791 172.388l-1.0129 0.5647 2.5736 3.0768 3.6414 2.6011 10.1922 3.7651 0.1587 -0.6453 -2.7103 108.72c4.0357,-0.3183 1.657,-8.9777 2.3537,-13.4108 0.6785,-4.3158 -0.0848,-10.4487 0.7223,-14.884 1.3811,-7.5896 0.2684,-21.8898 1.097,-28.6283 1.2382,-10.0705 -0.7014,-51.8277 3.7925,-56.998l-4.6819 113.925c1.827,-2.1021 6.2424,-106.622 6.2424,-118.607 -3.6079,0.0804 -6.3879,1.5607 -9.8838,1.5607l-2.601 0 -9.8839 -1.0405z"/>
  </g>
 </g>
</svg>
